<svg id="visual" viewBox="0 0 960 300" width="960" height="300" xmlns="http://www.w3.org/2000/svg" xmlns:xlink="http://www.w3.org/1999/xlink" version="1.1"><rect x="0" y="0" width="960" height="300" fill="#6d6875"></rect><path d="M0 81L22.8 99.7C45.7 118.3 91.3 155.7 137 162.7C182.7 169.7 228.3 146.3 274 133.5C319.7 120.7 365.3 118.3 411.2 131C457 143.7 503 171.3 548.8 187.5C594.7 203.7 640.3 208.3 686 203.3C731.7 198.3 777.3 183.7 823 165.7C868.7 147.7 914.3 126.3 937.2 115.7L960 105L960 301L937.2 301C914.3 301 868.7 301 823 301C777.3 301 731.7 301 686 301C640.3 301 594.7 301 548.8 301C503 301 457 301 411.2 301C365.3 301 319.7 301 274 301C228.3 301 182.7 301 137 301C91.3 301 45.7 301 22.8 301L0 301Z" fill="#b5838d" stroke-linecap="round" stroke-linejoin="miter"></path></svg>