<svg id="visual" viewBox="0 0 960 300" width="960" height="300" xmlns="http://www.w3.org/2000/svg" xmlns:xlink="http://www.w3.org/1999/xlink" version="1.1"><rect x="0" y="0" width="960" height="300" fill="#6d6875"></rect><path d="M0 83L22.8 99.2C45.7 115.3 91.3 147.7 137 153C182.7 158.3 228.3 136.7 274 120.8C319.7 105 365.3 95 411.2 99C457 103 503 121 548.8 120.8C594.7 120.7 640.3 102.3 686 92.8C731.7 83.3 777.3 82.7 823 102.5C868.7 122.3 914.3 162.7 937.2 182.8L960 203L960 0L937.2 0C914.3 0 868.7 0 823 0C777.3 0 731.7 0 686 0C640.3 0 594.7 0 548.8 0C503 0 457 0 411.2 0C365.3 0 319.7 0 274 0C228.3 0 182.7 0 137 0C91.3 0 45.7 0 22.8 0L0 0Z" fill="#ffb4a2" stroke-linecap="round" stroke-linejoin="miter"></path></svg>