<svg id="visual" viewBox="0 0 960 300" width="960" height="300" xmlns="http://www.w3.org/2000/svg" xmlns:xlink="http://www.w3.org/1999/xlink" version="1.1"><rect x="0" y="0" width="960" height="300" fill="#e5989b"></rect><path d="M0 131L22.8 136C45.7 141 91.3 151 137 160.8C182.7 170.7 228.3 180.3 274 178.5C319.7 176.7 365.3 163.3 411.2 157C457 150.7 503 151.3 548.8 163.2C594.7 175 640.3 198 686 188.3C731.7 178.7 777.3 136.3 823 118.8C868.7 101.3 914.3 108.7 937.2 112.3L960 116L960 0L937.2 0C914.3 0 868.7 0 823 0C777.3 0 731.7 0 686 0C640.3 0 594.7 0 548.8 0C503 0 457 0 411.2 0C365.3 0 319.7 0 274 0C228.3 0 182.7 0 137 0C91.3 0 45.7 0 22.8 0L0 0Z" fill="#6d6875" stroke-linecap="round" stroke-linejoin="miter"></path></svg>