<svg id="visual" viewBox="0 0 960 300" width="960" height="300" xmlns="http://www.w3.org/2000/svg" xmlns:xlink="http://www.w3.org/1999/xlink" version="1.1"><rect x="0" y="0" width="960" height="300" fill="#ffb4a2"></rect><path d="M0 195L22.8 198.8C45.7 202.7 91.3 210.3 137 208.7C182.7 207 228.3 196 274 182.8C319.7 169.7 365.3 154.3 411.2 140.7C457 127 503 115 548.8 126.2C594.7 137.3 640.3 171.7 686 183.7C731.7 195.7 777.3 185.3 823 181.8C868.7 178.3 914.3 181.7 937.2 183.3L960 185L960 0L937.2 0C914.3 0 868.7 0 823 0C777.3 0 731.7 0 686 0C640.3 0 594.7 0 548.8 0C503 0 457 0 411.2 0C365.3 0 319.7 0 274 0C228.3 0 182.7 0 137 0C91.3 0 45.7 0 22.8 0L0 0Z" fill="#ffcdb2" stroke-linecap="round" stroke-linejoin="miter"></path></svg>